HIERARCHY
ROOT Hips
{
  OFFSET -13.152 -14.067 -299.065
  CHANNELS 6 Xposition Yposition Zposition Zrotation Xrotation Yrotation
  JOINT LeftUpLeg
  {
    OFFSET 6.994 -7.508 2.830
    CHANNELS 6 Xposition Yposition Zposition Zrotation Xrotation Yrotation
    JOINT LeftLeg
    {
      OFFSET -0.000 -49.746 0.000
      CHANNELS 6 Xposition Yposition Zposition Zrotation Xrotation Yrotation
      JOINT LeftFoot
      {
        OFFSET -0.000 -41.914 -0.000
        CHANNELS 6 Xposition Yposition Zposition Zrotation Xrotation Yrotation
        End Site
        {
          OFFSET -0.000 -7.677 4.432
        }
      }
    }
  }
  JOINT RightUpLeg
  {
    OFFSET -7.363 -6.155 1.206
    CHANNELS 6 Xposition Yposition Zposition Zrotation Xrotation Yrotation
    JOINT RightLeg
    {
      OFFSET -0.000 -48.995 0.000
      CHANNELS 6 Xposition Yposition Zposition Zrotation Xrotation Yrotation
      JOINT RightFoot
      {
        OFFSET 0.000 -40.185 -0.000
        CHANNELS 6 Xposition Yposition Zposition Zrotation Xrotation Yrotation
        End Site
        {
          OFFSET -0.000 -8.106 4.680
        }
      }
    }
  }
  JOINT Spine
  {
    OFFSET 0.000 5.455 -5.455
    CHANNELS 6 Xposition Yposition Zposition Zrotation Xrotation Yrotation
    JOINT LeftShoulder
    {
      OFFSET -0.000 35.645 0.000
      CHANNELS 6 Xposition Yposition Zposition Zrotation Xrotation Yrotation
      JOINT LeftArm
      {
        OFFSET 20.766 0.000 0.000
        CHANNELS 6 Xposition Yposition Zposition Zrotation Xrotation Yrotation
        JOINT LeftForeArm
        {
          OFFSET 24.796 0.000 0.000
          CHANNELS 6 Xposition Yposition Zposition Zrotation Xrotation Yrotation
          JOINT LeftHand
          {
            OFFSET 24.806 0.000 -0.000
            CHANNELS 6 Xposition Yposition Zposition Zrotation Xrotation Yrotation
            JOINT LeftHandThumb1
            {
            OFFSET 4.970 -0.620 3.390
            CHANNELS 6 Xposition Yposition Zposition Zrotation Xrotation Yrotation
              JOINT LeftHandThumb2
              {
              OFFSET 2.150 -0.000 0.000
              CHANNELS 6 Xposition Yposition Zposition Zrotation Xrotation Yrotation
                JOINT LeftHandThumb3
                {
                OFFSET 2.200 -0.000 0.000
                CHANNELS 6 Xposition Yposition Zposition Zrotation Xrotation Yrotation
                  JOINT LeftHandThumb4
                  {
                  OFFSET 1.700 -0.000 0.000
                  CHANNELS 6 Xposition Yposition Zposition Zrotation Xrotation Yrotation
                  }
                }
              }
            }
            JOINT LeftHandIndex1
            {
            OFFSET 8.730 0.680 2.070
            CHANNELS 6 Xposition Yposition Zposition Zrotation Xrotation Yrotation
              JOINT LeftHandIndex2
              {
              OFFSET 2.670 -0.000 0.000
              CHANNELS 6 Xposition Yposition Zposition Zrotation Xrotation Yrotation
                JOINT LeftHandIndex3
                {
                OFFSET 2.130 -0.000 0.000
                CHANNELS 6 Xposition Yposition Zposition Zrotation Xrotation Yrotation
                  JOINT LeftHandIndex4
                  {
                  OFFSET 1.800 -0.000 0.000
                  CHANNELS 6 Xposition Yposition Zposition Zrotation Xrotation Yrotation
                  }
                }
              }
            }
            JOINT LeftHandMiddle1
            {
            OFFSET 9.220 0.670 0.550
            CHANNELS 6 Xposition Yposition Zposition Zrotation Xrotation Yrotation
              JOINT LeftHandMiddle2
              {
              OFFSET 2.660 -0.000 0.000
              CHANNELS 6 Xposition Yposition Zposition Zrotation Xrotation Yrotation
                JOINT LeftHandMiddle3
                {
                OFFSET 2.280 -0.000 0.000
                CHANNELS 6 Xposition Yposition Zposition Zrotation Xrotation Yrotation
                  JOINT LeftHandMiddle4
                  {
                  OFFSET 1.500 -0.000 0.000
                  CHANNELS 6 Xposition Yposition Zposition Zrotation Xrotation Yrotation
                  }
                }
              }
            }
            JOINT LeftHandRing1
            {
            OFFSET 9.250 0.670 -1.130
            CHANNELS 6 Xposition Yposition Zposition Zrotation Xrotation Yrotation
              JOINT LeftHandRing2
              {
              OFFSET 2.470 -0.000 0.000
              CHANNELS 6 Xposition Yposition Zposition Zrotation Xrotation Yrotation
                JOINT LeftHandRing3
                {
                OFFSET 2.210 -0.000 0.000
                CHANNELS 6 Xposition Yposition Zposition Zrotation Xrotation Yrotation
                  JOINT LeftHandRing4
                  {
                  OFFSET 1.800 -0.000 0.000
                  CHANNELS 6 Xposition Yposition Zposition Zrotation Xrotation Yrotation
                  }
                }
              }
            }
            JOINT LeftHandPinky1
            {
            OFFSET 9.350 0.660 -2.720
            CHANNELS 6 Xposition Yposition Zposition Zrotation Xrotation Yrotation
              JOINT LeftHandPinky2
              {
              OFFSET 1.630 -0.000 0.000
              CHANNELS 6 Xposition Yposition Zposition Zrotation Xrotation Yrotation
                JOINT LeftHandPinky3
                {
                OFFSET 1.710 -0.000 0.000
                CHANNELS 6 Xposition Yposition Zposition Zrotation Xrotation Yrotation
                  JOINT LeftHandPinky4
                  {
                  OFFSET 1.800 -0.000 0.000
                  CHANNELS 6 Xposition Yposition Zposition Zrotation Xrotation Yrotation
                  }
                }
              }
            }
          }
        }
      }
    }
    JOINT RightShoulder
    {
      OFFSET -0.000 35.645 0.000
      CHANNELS 6 Xposition Yposition Zposition Zrotation Xrotation Yrotation
      JOINT RightArm
      {
        OFFSET -18.273 0.000 -0.000
        CHANNELS 6 Xposition Yposition Zposition Zrotation Xrotation Yrotation
        JOINT RightForeArm
        {
          OFFSET -25.904 0.000 0.000
          CHANNELS 6 Xposition Yposition Zposition Zrotation Xrotation Yrotation
          JOINT RightHand
          {
            OFFSET -24.854 0.000 -0.000
            CHANNELS 6 Xposition Yposition Zposition Zrotation Xrotation Yrotation
            JOINT RightHandThumb1
            {
            OFFSET -4.970 -0.620 3.390
            CHANNELS 6 Xposition Yposition Zposition Zrotation Xrotation Yrotation
              JOINT RightHandThumb2
              {
              OFFSET -2.150 0.000 0.000
              CHANNELS 6 Xposition Yposition Zposition Zrotation Xrotation Yrotation
                JOINT RightHandThumb3
                {
                OFFSET -2.200 0.000 0.000
                CHANNELS 6 Xposition Yposition Zposition Zrotation Xrotation Yrotation
                  JOINT RightHandThumb4
                  {
                  OFFSET -1.700 0.000 0.000
                  CHANNELS 6 Xposition Yposition Zposition Zrotation Xrotation Yrotation
                  }
                }
              }
            }
            JOINT RightHandIndex1
            {
            OFFSET -8.730 0.680 2.070
            CHANNELS 6 Xposition Yposition Zposition Zrotation Xrotation Yrotation
              JOINT RightHandIndex2
              {
              OFFSET -2.670 0.000 0.000
              CHANNELS 6 Xposition Yposition Zposition Zrotation Xrotation Yrotation
                JOINT RightHandIndex3
                {
                OFFSET -2.130 0.000 0.000
                CHANNELS 6 Xposition Yposition Zposition Zrotation Xrotation Yrotation
                  JOINT RightHandIndex4
                  {
                  OFFSET -1.800 0.000 0.000
                  CHANNELS 6 Xposition Yposition Zposition Zrotation Xrotation Yrotation
                  }
                }
              }
            }
            JOINT RightHandMiddle1
            {
            OFFSET -9.220 0.670 0.550
            CHANNELS 6 Xposition Yposition Zposition Zrotation Xrotation Yrotation
              JOINT RightHandMiddle2
              {
              OFFSET -2.660 0.000 0.000
              CHANNELS 6 Xposition Yposition Zposition Zrotation Xrotation Yrotation
                JOINT RightHandMiddle3
                {
                OFFSET -2.280 0.000 0.000
                CHANNELS 6 Xposition Yposition Zposition Zrotation Xrotation Yrotation
                  JOINT RightHandMiddle4
                  {
                  OFFSET -1.500 0.000 0.000
                  CHANNELS 6 Xposition Yposition Zposition Zrotation Xrotation Yrotation
                  }
                }
              }
            }
            JOINT RightHandRing1
            {
            OFFSET -9.250 0.670 -1.130
            CHANNELS 6 Xposition Yposition Zposition Zrotation Xrotation Yrotation
              JOINT RightHandRing2
              {
              OFFSET -2.470 0.000 0.000
              CHANNELS 6 Xposition Yposition Zposition Zrotation Xrotation Yrotation
                JOINT RightHandRing3
                {
                OFFSET -2.210 0.000 0.000
                CHANNELS 6 Xposition Yposition Zposition Zrotation Xrotation Yrotation
                  JOINT RightHandRing4
                  {
                  OFFSET -1.800 0.000 0.000
                  CHANNELS 6 Xposition Yposition Zposition Zrotation Xrotation Yrotation
                  }
                }
              }
            }
            JOINT RightHandPinky1
            {
            OFFSET -9.350 0.660 -2.720
            CHANNELS 6 Xposition Yposition Zposition Zrotation Xrotation Yrotation
              JOINT RightHandPinky2
              {
              OFFSET -1.630 0.000 0.000
              CHANNELS 6 Xposition Yposition Zposition Zrotation Xrotation Yrotation
                JOINT RightHandPinky3
                {
                OFFSET -1.710 0.000 0.000
                CHANNELS 6 Xposition Yposition Zposition Zrotation Xrotation Yrotation
                  JOINT RightHandPinky4
                  {
                  OFFSET -1.800 0.000 0.000
                  CHANNELS 6 Xposition Yposition Zposition Zrotation Xrotation Yrotation
                  }
                }
              }
            }
          }
        }
      }
    }
    JOINT Neck
    {
      OFFSET -0.000 35.645 0.000
      CHANNELS 6 Xposition Yposition Zposition Zrotation Xrotation Yrotation
      JOINT Head
      {
        OFFSET -0.000 19.173 -0.000
        CHANNELS 6 Xposition Yposition Zposition Zrotation Xrotation Yrotation
        End Site
        {
          OFFSET -0.000 0.077 -0.000
        }
      }
    }
  }
}
MOTION
Frames:	5
Frame Time:	0.0333333
-16.6758 -11.7021 -300.312 0.602173 -6.60932 20.2374 7.45941 -7.7537 2.0925 2.91439 1.43526 -3.93034 -2.98023e-05 -52.2325 -2.38419e-05 -6.72283 10.3828 1.21702 1.78814e-05 -41.061 0 11.6436 6.12344 5.53062 -7.52698 -6.85946 1.10843 -9.35677 -5.9805 -4.43526 -2.38419e-05 -49.2376 -7.15256e-05 5.73262 16.3378 8.897e-06 1.78814e-05 -40.761 2.38419e-05 2.88929 4.02837 1.46619 2.38419e-05 6.22792 -6.22787 0.0232497 -3.40552 -1.79276 -5.96046e-06 35.6457 -2.38419e-05 -32.1004 1.02453e-05 -5.33992 20.8389 -2.38419e-05 0 -51.1374 31.7168 3.09466 26.7076 0 -2.38419e-05 -6.52957e-07 -3.41509e-06 -25.0386 22.6656 2.38419e-05 4.76837e-05 -7.00548 0.0412683 -14.0943 0.0062 0.0497 0.0339 0 0 0 0 0.0215 0 0 0 0 0 0.022 0 0 0 0 0 0.017 0 0 0 0 -0.0068 0.0873 0.0207 0 0 0 0 0.0267 0 0 0 0 0 0.0213 0 0 0 0 0 0.018 0 0 0 0 -0.0067 0.0922 0.0055 0 0 0 0 0.0266 0 0 0 0 0 0.0228 0 0 0 0 0 0.015 0 0 0 0 -0.0067 0.0925 -0.0113 0 0 0 0 0.0247 0 0 0 0 0 0.0221 0 0 0 0 0 0.018 0 0 0 0 -0.0066 0.0935 -0.0272 0 0 0 0 0.0163 0 0 0 0 0 0.0171 0 0 0 0 0 0.018 0 0 0 0 -5.96046e-06 35.6457 -2.38419e-05 31.5799 -1.38738e-06 5.89972 -18.8676 2.98023e-06 -2.38419e-05 33.4579 55.5539 8.05455 -25.0961 -4.76837e-05 1.19209e-05 6.76057e-06 -1.02453e-05 25.4233 -28.2276 4.76837e-05 0 6.12035 0.00661602 5.25439 -0.0062 0.0497 0.0339 0 0 0 0 0.0215 0 0 0 0 0 0.022 0 0 0 0 0 0.017 0 0 0 0 0.0068 0.0873 0.0207 0 0 0 0 0.0267 0 0 0 0 0 0.0213 0 0 0 0 0 0.018 0 0 0 0 0.0067 0.0922 0.0055 0 0 0 0 0.0266 0 0 0 0 0 0.0228 0 0 0 0 0 0.015 0 0 0 0 0.0067 0.0925 -0.0113 0 0 0 0 0.0247 0 0 0 0 0 0.0221 0 0 0 0 0 0.018 0 0 0 0 0.0066 0.0935 -0.0272 0 0 0 0 0.0163 0 0 0 0 0 0.0171 0 0 0 0 0 0.018 0 0 0 0 -5.96046e-06 35.6457 -2.38419e-05 -7.42113 11.0895 1.43513 -1.78814e-05 21.2602 4.76837e-05 6.99027e-06 -1.01386e-05 3.41509e-06 
-16.5125 -11.7135 -300.509 0.552572 -6.62648 20.4396 7.425 -7.71804 2.12708 2.85323 1.36184 -4.25941 -1.19209e-05 -52.2928 9.53674e-05 -6.70624 10.4382 1.2204 5.96046e-06 -41.0457 -7.15256e-05 11.5734 6.02229 5.51913 -7.4727 -6.83759 1.06032 -9.44744 -5.82417 -4.73228 0 -49.4255 4.76837e-05 5.69924 15.9571 -1.77598e-06 1.19209e-05 -40.6684 0 3.09526 1.61505 1.65585 2.38419e-05 6.23827 -6.23827 0.144285 -3.50564 -1.92443 5.96046e-06 35.6457 -4.76837e-05 -32.2597 8.53774e-06 -5.44507 20.9073 0 0 -51.2355 30.243 3.63004 26.7436 0 2.38419e-05 -4.31207e-06 8.53774e-07 -25.0006 22.4272 0 2.38419e-05 -6.43016 0.0159648 -12.8619 0.0062 0.0497 0.0339 0 0 0 0 0.0215 0 0 0 0 0 0.022 0 0 0 0 0 0.017 0 0 0 0 -0.0068 0.0873 0.0207 0 0 0 0 0.0267 0 0 0 0 0 0.0213 0 0 0 0 0 0.018 0 0 0 0 -0.0067 0.0922 0.0055 0 0 0 0 0.0266 0 0 0 0 0 0.0228 0 0 0 0 0 0.015 0 0 0 0 -0.0067 0.0925 -0.0113 0 0 0 0 0.0247 0 0 0 0 0 0.0221 0 0 0 0 0 0.018 0 0 0 0 -0.0066 0.0935 -0.0272 0 0 0 0 0.0163 0 0 0 0 0 0.0171 0 0 0 0 0 0.018 0 0 0 0 5.96046e-06 35.6457 -4.76837e-05 31.5796 -2.98821e-06 6.08307 -18.7215 8.9407e-06 -4.76837e-05 33.5148 55.608 7.59061 -25.3214 2.38419e-05 2.38419e-05 -5.97623e-08 1.62217e-05 25.112 -28.1283 0 -1.49012e-05 6.38658 0.00448548 5.45957 -0.0062 0.0497 0.0339 0 0 0 0 0.0215 0 0 0 0 0 0.022 0 0 0 0 0 0.017 0 0 0 0 0.0068 0.0873 0.0207 0 0 0 0 0.0267 0 0 0 0 0 0.0213 0 0 0 0 0 0.018 0 0 0 0 0.0067 0.0922 0.0055 0 0 0 0 0.0266 0 0 0 0 0 0.0228 0 0 0 0 0 0.015 0 0 0 0 0.0067 0.0925 -0.0113 0 0 0 0 0.0247 0 0 0 0 0 0.0221 0 0 0 0 0 0.018 0 0 0 0 0.0066 0.0935 -0.0272 0 0 0 0 0.0163 0 0 0 0 0 0.0171 0 0 0 0 0 0.018 0 0 0 0 5.96046e-06 35.6457 -4.76837e-05 -7.73023 11.5662 1.559 -1.19209e-05 21.4286 -2.38419e-05 9.23143e-06 -1.0352e-05 -5.12264e-06 
-16.459 -11.7228 -300.594 0.522467 -6.62023 20.4999 7.40907 -7.70037 2.14632 2.84847 1.31413 -4.4468 1.78814e-05 -52.3161 2.38419e-05 -6.73712 10.4145 1.22331 -1.78814e-05 -41.0448 0 11.5773 5.99921 5.52628 -7.44842 -6.83003 1.03221 -9.46733 -5.78417 -4.90415 5.96046e-06 -49.4972 -4.76837e-05 5.65458 15.7919 8.87262e-06 -5.96046e-06 -40.6406 -4.76837e-05 3.70224 -7.21015 2.32711 5.96046e-06 6.24353 -6.24352 0.188044 -3.54932 -1.96511 -2.38419e-05 35.6457 4.76837e-05 -32.3312 1.19528e-05 -5.52008 20.9234 -2.38419e-05 0 -51.239 29.6107 3.9009 26.7408 0 0 -5.84436e-06 -3.41509e-06 -25.1186 22.3556 -5.96046e-06 -2.38419e-05 -6.028 0.00496102 -11.8145 0.0062 0.0497 0.0339 0 0 0 0 0.0215 0 0 0 0 0 0.022 0 0 0 0 0 0.017 0 0 0 0 -0.0068 0.0873 0.0207 0 0 0 0 0.0267 0 0 0 0 0 0.0213 0 0 0 0 0 0.018 0 0 0 0 -0.0067 0.0922 0.0055 0 0 0 0 0.0266 0 0 0 0 0 0.0228 0 0 0 0 0 0.015 0 0 0 0 -0.0067 0.0925 -0.0113 0 0 0 0 0.0247 0 0 0 0 0 0.0221 0 0 0 0 0 0.018 0 0 0 0 -0.0066 0.0935 -0.0272 0 0 0 0 0.0163 0 0 0 0 0 0.0171 0 0 0 0 0 0.018 0 0 0 0 -2.38419e-05 35.6457 4.76837e-05 31.5715 -3.62854e-06 6.18527 -18.6805 -8.9407e-06 -4.76837e-05 33.5415 55.826 7.41523 -25.4041 2.38419e-05 3.57628e-05 7.05989e-06 -1.10991e-05 25.001 -27.9258 0 -2.98023e-06 6.35018 0.00402745 5.61814 -0.0062 0.0497 0.0339 0 0 0 0 0.0215 0 0 0 0 0 0.022 0 0 0 0 0 0.017 0 0 0 0 0.0068 0.0873 0.0207 0 0 0 0 0.0267 0 0 0 0 0 0.0213 0 0 0 0 0 0.018 0 0 0 0 0.0067 0.0922 0.0055 0 0 0 0 0.0266 0 0 0 0 0 0.0228 0 0 0 0 0 0.015 0 0 0 0 0.0067 0.0925 -0.0113 0 0 0 0 0.0247 0 0 0 0 0 0.0221 0 0 0 0 0 0.018 0 0 0 0 0.0066 0.0935 -0.0272 0 0 0 0 0.0163 0 0 0 0 0 0.0171 0 0 0 0 0 0.018 0 0 0 0 -2.38419e-05 35.6457 4.76837e-05 -7.79077 11.6819 1.58685 1.19209e-05 21.5098 -2.38419e-05 8.21757e-06 -9.17807e-06 -1.70755e-06 
-16.459 -11.7228 -300.594 0.522467 -6.62023 20.4999 7.40907 -7.70037 2.14632 2.84847 1.31413 -4.4468 1.78814e-05 -52.3161 2.38419e-05 -6.73712 10.4145 1.22331 -1.78814e-05 -41.0448 0 11.5773 5.99921 5.52628 -7.44842 -6.83003 1.03221 -9.46733 -5.78417 -4.90415 5.96046e-06 -49.4972 -4.76837e-05 5.65458 15.7919 8.87262e-06 -5.96046e-06 -40.6406 -4.76837e-05 3.70224 -7.21015 2.32711 5.96046e-06 6.24353 -6.24352 0.188044 -3.54932 -1.96511 -2.38419e-05 35.6457 4.76837e-05 -32.3312 1.19528e-05 -5.52008 20.9234 -2.38419e-05 0 -51.239 29.6107 3.9009 26.7408 0 0 -5.84436e-06 -3.41509e-06 -25.1186 22.3556 -5.96046e-06 -2.38419e-05 -6.028 0.00496102 -11.8145 0.0062 0.0497 0.0339 0 0 0 0 0.0215 0 0 0 0 0 0.022 0 0 0 0 0 0.017 0 0 0 0 -0.0068 0.0873 0.0207 0 0 0 0 0.0267 0 0 0 0 0 0.0213 0 0 0 0 0 0.018 0 0 0 0 -0.0067 0.0922 0.0055 0 0 0 0 0.0266 0 0 0 0 0 0.0228 0 0 0 0 0 0.015 0 0 0 0 -0.0067 0.0925 -0.0113 0 0 0 0 0.0247 0 0 0 0 0 0.0221 0 0 0 0 0 0.018 0 0 0 0 -0.0066 0.0935 -0.0272 0 0 0 0 0.0163 0 0 0 0 0 0.0171 0 0 0 0 0 0.018 0 0 0 0 -2.38419e-05 35.6457 4.76837e-05 31.5715 -3.62854e-06 6.18527 -18.6805 -8.9407e-06 -4.76837e-05 33.5415 55.826 7.41523 -25.4041 2.38419e-05 3.57628e-05 7.05989e-06 -1.10991e-05 25.001 -27.9258 0 -2.98023e-06 6.35018 0.00402745 5.61814 -0.0062 0.0497 0.0339 0 0 0 0 0.0215 0 0 0 0 0 0.022 0 0 0 0 0 0.017 0 0 0 0 0.0068 0.0873 0.0207 0 0 0 0 0.0267 0 0 0 0 0 0.0213 0 0 0 0 0 0.018 0 0 0 0 0.0067 0.0922 0.0055 0 0 0 0 0.0266 0 0 0 0 0 0.0228 0 0 0 0 0 0.015 0 0 0 0 0.0067 0.0925 -0.0113 0 0 0 0 0.0247 0 0 0 0 0 0.0221 0 0 0 0 0 0.018 0 0 0 0 0.0066 0.0935 -0.0272 0 0 0 0 0.0163 0 0 0 0 0 0.0171 0 0 0 0 0 0.018 0 0 0 0 -2.38419e-05 35.6457 4.76837e-05 -7.79077 11.6819 1.58685 1.19209e-05 21.5098 -2.38419e-05 8.21757e-06 -9.17807e-06 -1.70755e-06 
-16.459 -11.7228 -300.594 0.522467 -6.62023 20.4999 7.40907 -7.70037 2.14632 2.84847 1.31413 -4.4468 1.78814e-05 -52.3161 2.38419e-05 -6.73712 10.4145 1.22331 -1.78814e-05 -41.0448 0 11.5773 5.99921 5.52628 -7.44842 -6.83003 1.03221 -9.46733 -5.78417 -4.90415 5.96046e-06 -49.4972 -4.76837e-05 5.65458 15.7919 8.87262e-06 -5.96046e-06 -40.6406 -4.76837e-05 3.70224 -7.21015 2.32711 5.96046e-06 6.24353 -6.24352 0.188044 -3.54932 -1.96511 -2.38419e-05 35.6457 4.76837e-05 -32.3312 1.19528e-05 -5.52008 20.9234 -2.38419e-05 0 -51.239 29.6107 3.9009 26.7408 0 0 -5.84436e-06 -3.41509e-06 -25.1186 22.3556 -5.96046e-06 -2.38419e-05 -6.028 0.00496102 -11.8145 0.0062 0.0497 0.0339 0 0 0 0 0.0215 0 0 0 0 0 0.022 0 0 0 0 0 0.017 0 0 0 0 -0.0068 0.0873 0.0207 0 0 0 0 0.0267 0 0 0 0 0 0.0213 0 0 0 0 0 0.018 0 0 0 0 -0.0067 0.0922 0.0055 0 0 0 0 0.0266 0 0 0 0 0 0.0228 0 0 0 0 0 0.015 0 0 0 0 -0.0067 0.0925 -0.0113 0 0 0 0 0.0247 0 0 0 0 0 0.0221 0 0 0 0 0 0.018 0 0 0 0 -0.0066 0.0935 -0.0272 0 0 0 0 0.0163 0 0 0 0 0 0.0171 0 0 0 0 0 0.018 0 0 0 0 -2.38419e-05 35.6457 4.76837e-05 31.5715 -3.62854e-06 6.18527 -18.6805 -8.9407e-06 -4.76837e-05 33.5415 55.826 7.41523 -25.4041 2.38419e-05 3.57628e-05 7.05989e-06 -1.10991e-05 25.001 -27.9258 0 -2.98023e-06 6.35018 0.00402745 5.61814 -0.0062 0.0497 0.0339 0 0 0 0 0.0215 0 0 0 0 0 0.022 0 0 0 0 0 0.017 0 0 0 0 0.0068 0.0873 0.0207 0 0 0 0 0.0267 0 0 0 0 0 0.0213 0 0 0 0 0 0.018 0 0 0 0 0.0067 0.0922 0.0055 0 0 0 0 0.0266 0 0 0 0 0 0.0228 0 0 0 0 0 0.015 0 0 0 0 0.0067 0.0925 -0.0113 0 0 0 0 0.0247 0 0 0 0 0 0.0221 0 0 0 0 0 0.018 0 0 0 0 0.0066 0.0935 -0.0272 0 0 0 0 0.0163 0 0 0 0 0 0.0171 0 0 0 0 0 0.018 0 0 0 0 -2.38419e-05 35.6457 4.76837e-05 -7.79077 11.6819 1.58685 1.19209e-05 21.5098 -2.38419e-05 8.21757e-06 -9.17807e-06 -1.70755e-06 
